<mxfile host="app.diagrams.net" modified="2023-09-04T12:32:38.806Z" agent="Mozilla/5.0 (X11; Ubuntu; Linux x86_64; rv:109.0) Gecko/20100101 Firefox/117.0" etag="ON1nlYv-5T1n2cZEy6Y9" version="21.7.2" type="device">
  <diagram name="Page-1" id="KuY-AVDA5d1IlJ0ODtzJ">
    <mxGraphModel dx="1195" dy="543" grid="1" gridSize="10" guides="1" tooltips="1" connect="1" arrows="1" fold="1" page="1" pageScale="1" pageWidth="850" pageHeight="1100" math="0" shadow="0">
      <root>
        <mxCell id="0" />
        <mxCell id="1" parent="0" />
        <mxCell id="_EZmgNXVR4vnoxnc1yKU-1" value="&lt;b&gt;rec&lt;/b&gt;" style="swimlane;fontStyle=0;childLayout=stackLayout;horizontal=1;startSize=26;fillColor=none;horizontalStack=0;resizeParent=1;resizeParentMax=0;resizeLast=0;collapsible=1;marginBottom=0;whiteSpace=wrap;html=1;fontSize=12;spacing=2;" vertex="1" parent="1">
          <mxGeometry x="40" y="40" width="120" height="170" as="geometry">
            <mxRectangle x="40" y="40" width="60" height="30" as="alternateBounds" />
          </mxGeometry>
        </mxCell>
        <mxCell id="_EZmgNXVR4vnoxnc1yKU-2" value="url: String" style="text;strokeColor=none;fillColor=none;align=left;verticalAlign=top;spacingLeft=4;spacingRight=4;overflow=hidden;rotatable=0;points=[[0,0.5],[1,0.5]];portConstraint=eastwest;whiteSpace=wrap;html=1;spacing=0;" vertex="1" parent="_EZmgNXVR4vnoxnc1yKU-1">
          <mxGeometry y="26" width="120" height="24" as="geometry" />
        </mxCell>
        <mxCell id="_EZmgNXVR4vnoxnc1yKU-3" value="regexp: String" style="text;strokeColor=none;fillColor=none;align=left;verticalAlign=top;spacingLeft=4;spacingRight=4;overflow=hidden;rotatable=0;points=[[0,0.5],[1,0.5]];portConstraint=eastwest;whiteSpace=wrap;html=1;spacing=0;" vertex="1" parent="_EZmgNXVR4vnoxnc1yKU-1">
          <mxGeometry y="50" width="120" height="24" as="geometry" />
        </mxCell>
        <mxCell id="_EZmgNXVR4vnoxnc1yKU-4" value="period: Int" style="text;strokeColor=none;fillColor=none;align=left;verticalAlign=top;spacingLeft=4;spacingRight=4;overflow=hidden;rotatable=0;points=[[0,0.5],[1,0.5]];portConstraint=eastwest;whiteSpace=wrap;html=1;spacing=0;" vertex="1" parent="_EZmgNXVR4vnoxnc1yKU-1">
          <mxGeometry y="74" width="120" height="24" as="geometry" />
        </mxCell>
        <mxCell id="_EZmgNXVR4vnoxnc1yKU-5" value="label: String" style="text;strokeColor=none;fillColor=none;align=left;verticalAlign=top;spacingLeft=4;spacingRight=4;overflow=hidden;rotatable=0;points=[[0,0.5],[1,0.5]];portConstraint=eastwest;whiteSpace=wrap;html=1;spacing=0;" vertex="1" parent="_EZmgNXVR4vnoxnc1yKU-1">
          <mxGeometry y="98" width="120" height="24" as="geometry" />
        </mxCell>
        <mxCell id="_EZmgNXVR4vnoxnc1yKU-6" value="active: Boolean" style="text;strokeColor=none;fillColor=none;align=left;verticalAlign=top;spacingLeft=4;spacingRight=4;overflow=hidden;rotatable=0;points=[[0,0.5],[1,0.5]];portConstraint=eastwest;whiteSpace=wrap;html=1;spacing=0;" vertex="1" parent="_EZmgNXVR4vnoxnc1yKU-1">
          <mxGeometry y="122" width="120" height="24" as="geometry" />
        </mxCell>
        <mxCell id="_EZmgNXVR4vnoxnc1yKU-7" value="tags: [String]" style="text;strokeColor=none;fillColor=none;align=left;verticalAlign=top;spacingLeft=4;spacingRight=4;overflow=hidden;rotatable=0;points=[[0,0.5],[1,0.5]];portConstraint=eastwest;whiteSpace=wrap;html=1;spacing=0;" vertex="1" parent="_EZmgNXVR4vnoxnc1yKU-1">
          <mxGeometry y="146" width="120" height="24" as="geometry" />
        </mxCell>
        <mxCell id="_EZmgNXVR4vnoxnc1yKU-8" value="&lt;b&gt;exe&lt;/b&gt;" style="swimlane;fontStyle=0;childLayout=stackLayout;horizontal=1;startSize=26;fillColor=none;horizontalStack=0;resizeParent=1;resizeParentMax=0;resizeLast=0;collapsible=1;marginBottom=0;whiteSpace=wrap;html=1;fontSize=12;spacing=2;" vertex="1" parent="1">
          <mxGeometry x="320" y="64" width="140" height="122" as="geometry">
            <mxRectangle x="40" y="40" width="60" height="30" as="alternateBounds" />
          </mxGeometry>
        </mxCell>
        <mxCell id="_EZmgNXVR4vnoxnc1yKU-9" value="status: Enum" style="text;strokeColor=none;fillColor=none;align=left;verticalAlign=top;spacingLeft=4;spacingRight=4;overflow=hidden;rotatable=0;points=[[0,0.5],[1,0.5]];portConstraint=eastwest;whiteSpace=wrap;html=1;spacing=0;" vertex="1" parent="_EZmgNXVR4vnoxnc1yKU-8">
          <mxGeometry y="26" width="140" height="24" as="geometry" />
        </mxCell>
        <mxCell id="_EZmgNXVR4vnoxnc1yKU-10" value="createTime: DateTime" style="text;strokeColor=none;fillColor=none;align=left;verticalAlign=top;spacingLeft=4;spacingRight=4;overflow=hidden;rotatable=0;points=[[0,0.5],[1,0.5]];portConstraint=eastwest;whiteSpace=wrap;html=1;spacing=0;" vertex="1" parent="_EZmgNXVR4vnoxnc1yKU-8">
          <mxGeometry y="50" width="140" height="24" as="geometry" />
        </mxCell>
        <mxCell id="_EZmgNXVR4vnoxnc1yKU-11" value="finishTime: DateTime" style="text;strokeColor=none;fillColor=none;align=left;verticalAlign=top;spacingLeft=4;spacingRight=4;overflow=hidden;rotatable=0;points=[[0,0.5],[1,0.5]];portConstraint=eastwest;whiteSpace=wrap;html=1;spacing=0;" vertex="1" parent="_EZmgNXVR4vnoxnc1yKU-8">
          <mxGeometry y="74" width="140" height="24" as="geometry" />
        </mxCell>
        <mxCell id="_EZmgNXVR4vnoxnc1yKU-12" value="sitesCrawl: Int" style="text;strokeColor=none;fillColor=none;align=left;verticalAlign=top;spacingLeft=4;spacingRight=4;overflow=hidden;rotatable=0;points=[[0,0.5],[1,0.5]];portConstraint=eastwest;whiteSpace=wrap;html=1;spacing=0;" vertex="1" parent="_EZmgNXVR4vnoxnc1yKU-8">
          <mxGeometry y="98" width="140" height="24" as="geometry" />
        </mxCell>
        <mxCell id="_EZmgNXVR4vnoxnc1yKU-13" value="" style="endArrow=none;html=1;edgeStyle=orthogonalEdgeStyle;rounded=0;" edge="1" parent="1" source="_EZmgNXVR4vnoxnc1yKU-1" target="_EZmgNXVR4vnoxnc1yKU-8">
          <mxGeometry relative="1" as="geometry">
            <mxPoint x="190" y="160" as="sourcePoint" />
            <mxPoint x="350" y="160" as="targetPoint" />
          </mxGeometry>
        </mxCell>
        <mxCell id="_EZmgNXVR4vnoxnc1yKU-14" value="1" style="edgeLabel;resizable=0;html=1;align=left;verticalAlign=bottom;spacingLeft=2;spacingRight=2;" connectable="0" vertex="1" parent="_EZmgNXVR4vnoxnc1yKU-13">
          <mxGeometry x="-1" relative="1" as="geometry" />
        </mxCell>
        <mxCell id="_EZmgNXVR4vnoxnc1yKU-15" value="0..*" style="edgeLabel;resizable=0;html=1;align=right;verticalAlign=bottom;spacingLeft=2;spacingRight=2;" connectable="0" vertex="1" parent="_EZmgNXVR4vnoxnc1yKU-13">
          <mxGeometry x="1" relative="1" as="geometry" />
        </mxCell>
        <mxCell id="_EZmgNXVR4vnoxnc1yKU-16" value="&amp;nbsp;executed by &amp;gt;&amp;nbsp;" style="edgeLabel;html=1;align=center;verticalAlign=middle;resizable=0;points=[];spacingLeft=1;spacingRight=1;labelBackgroundColor=#FFFFFF;" vertex="1" connectable="0" parent="_EZmgNXVR4vnoxnc1yKU-13">
          <mxGeometry x="-0.0019" relative="1" as="geometry">
            <mxPoint as="offset" />
          </mxGeometry>
        </mxCell>
        <mxCell id="_EZmgNXVR4vnoxnc1yKU-17" value="&lt;b&gt;nod&lt;/b&gt;" style="swimlane;fontStyle=0;childLayout=stackLayout;horizontal=1;startSize=26;fillColor=none;horizontalStack=0;resizeParent=1;resizeParentMax=0;resizeLast=0;collapsible=1;marginBottom=0;whiteSpace=wrap;html=1;fontSize=12;spacing=2;" vertex="1" parent="1">
          <mxGeometry x="580" y="76" width="130" height="98" as="geometry">
            <mxRectangle x="40" y="40" width="60" height="30" as="alternateBounds" />
          </mxGeometry>
        </mxCell>
        <mxCell id="_EZmgNXVR4vnoxnc1yKU-18" value="url: String" style="text;strokeColor=none;fillColor=none;align=left;verticalAlign=top;spacingLeft=4;spacingRight=4;overflow=hidden;rotatable=0;points=[[0,0.5],[1,0.5]];portConstraint=eastwest;whiteSpace=wrap;html=1;spacing=0;" vertex="1" parent="_EZmgNXVR4vnoxnc1yKU-17">
          <mxGeometry y="26" width="130" height="24" as="geometry" />
        </mxCell>
        <mxCell id="_EZmgNXVR4vnoxnc1yKU-19" value="title: String" style="text;strokeColor=none;fillColor=none;align=left;verticalAlign=top;spacingLeft=4;spacingRight=4;overflow=hidden;rotatable=0;points=[[0,0.5],[1,0.5]];portConstraint=eastwest;whiteSpace=wrap;html=1;spacing=0;" vertex="1" parent="_EZmgNXVR4vnoxnc1yKU-17">
          <mxGeometry y="50" width="130" height="24" as="geometry" />
        </mxCell>
        <mxCell id="_EZmgNXVR4vnoxnc1yKU-20" value="crawlTime: DateTime" style="text;strokeColor=none;fillColor=none;align=left;verticalAlign=top;spacingLeft=4;spacingRight=4;overflow=hidden;rotatable=0;points=[[0,0.5],[1,0.5]];portConstraint=eastwest;whiteSpace=wrap;html=1;spacing=0;" vertex="1" parent="_EZmgNXVR4vnoxnc1yKU-17">
          <mxGeometry y="74" width="130" height="24" as="geometry" />
        </mxCell>
        <mxCell id="_EZmgNXVR4vnoxnc1yKU-21" value="" style="endArrow=none;html=1;edgeStyle=orthogonalEdgeStyle;rounded=0;" edge="1" parent="1" source="_EZmgNXVR4vnoxnc1yKU-8" target="_EZmgNXVR4vnoxnc1yKU-17">
          <mxGeometry relative="1" as="geometry">
            <mxPoint x="430" y="180" as="sourcePoint" />
            <mxPoint x="590" y="180" as="targetPoint" />
          </mxGeometry>
        </mxCell>
        <mxCell id="_EZmgNXVR4vnoxnc1yKU-22" value="1" style="edgeLabel;resizable=0;html=1;align=left;verticalAlign=bottom;spacingRight=2;spacingLeft=2;" connectable="0" vertex="1" parent="_EZmgNXVR4vnoxnc1yKU-21">
          <mxGeometry x="-1" relative="1" as="geometry" />
        </mxCell>
        <mxCell id="_EZmgNXVR4vnoxnc1yKU-23" value="1..*" style="edgeLabel;resizable=0;html=1;align=right;verticalAlign=bottom;spacingRight=2;spacingLeft=2;" connectable="0" vertex="1" parent="_EZmgNXVR4vnoxnc1yKU-21">
          <mxGeometry x="1" relative="1" as="geometry" />
        </mxCell>
        <mxCell id="_EZmgNXVR4vnoxnc1yKU-24" value="&amp;nbsp;found &amp;gt;&amp;nbsp;" style="edgeLabel;html=1;align=center;verticalAlign=middle;resizable=0;points=[];labelBackgroundColor=#FFFFFF;" vertex="1" connectable="0" parent="_EZmgNXVR4vnoxnc1yKU-21">
          <mxGeometry x="-0.0068" y="-1" relative="1" as="geometry">
            <mxPoint y="-1" as="offset" />
          </mxGeometry>
        </mxCell>
        <mxCell id="_EZmgNXVR4vnoxnc1yKU-25" value="" style="endArrow=none;html=1;edgeStyle=orthogonalEdgeStyle;rounded=0;" edge="1" parent="1" source="_EZmgNXVR4vnoxnc1yKU-17" target="_EZmgNXVR4vnoxnc1yKU-17">
          <mxGeometry relative="1" as="geometry">
            <mxPoint x="540" y="170" as="sourcePoint" />
            <mxPoint x="700" y="170" as="targetPoint" />
            <Array as="points">
              <mxPoint x="750" y="120" />
              <mxPoint x="750" y="200" />
              <mxPoint x="645" y="200" />
            </Array>
          </mxGeometry>
        </mxCell>
        <mxCell id="_EZmgNXVR4vnoxnc1yKU-26" value="1" style="edgeLabel;resizable=0;html=1;align=left;verticalAlign=bottom;" connectable="0" vertex="1" parent="_EZmgNXVR4vnoxnc1yKU-25">
          <mxGeometry x="-1" relative="1" as="geometry">
            <mxPoint x="1" as="offset" />
          </mxGeometry>
        </mxCell>
        <mxCell id="_EZmgNXVR4vnoxnc1yKU-27" value="0..*" style="edgeLabel;resizable=0;html=1;align=right;verticalAlign=bottom;spacing=2;spacingLeft=0;spacingRight=0;spacingTop=0;" connectable="0" vertex="1" parent="_EZmgNXVR4vnoxnc1yKU-25">
          <mxGeometry x="1" relative="1" as="geometry">
            <mxPoint x="21" y="18" as="offset" />
          </mxGeometry>
        </mxCell>
        <mxCell id="_EZmgNXVR4vnoxnc1yKU-28" value="precedes &amp;gt;" style="edgeLabel;html=1;align=center;verticalAlign=middle;resizable=0;points=[];labelBackgroundColor=#FFFFFF;" vertex="1" connectable="0" parent="_EZmgNXVR4vnoxnc1yKU-25">
          <mxGeometry x="-0.0319" y="-1" relative="1" as="geometry">
            <mxPoint x="1" y="-39" as="offset" />
          </mxGeometry>
        </mxCell>
      </root>
    </mxGraphModel>
  </diagram>
</mxfile>
